<svg version="1.1" id="Camada_1" xmlns="http://www.w3.org/2000/svg" x="0" y="0" viewBox="0 0 1167.7 1500" style="enable-background:new 0 0 1167.7 1500" xml:space="preserve"><style>.st1,.st2,.st4{fill-rule:evenodd;clip-rule:evenodd;fill:#fefefe}.st2,.st4{opacity:.986;fill:#221f1f;enable-background:new}.st4{opacity:.988}</style><path d="M156.6.1C431.7 0 706.8.1 981.9.5c16.8 3.8 26.4 14.2 28.7 31.2.6 267.1.6 534.1 0 801.2-1.8 16.7-10.8 27.1-27.1 31.2-276.2.6-552.4.6-828.7 0-16.3-4.1-25.3-14.5-27.1-31.2-.6-267.1-.6-534.1 0-801.2 2.6-17.1 12.2-27.6 28.9-31.6z" style="opacity:.997;fill-rule:evenodd;clip-rule:evenodd;fill:#02b0e2;enable-background:new"/><path class="st1" d="M178.2 55.9c94.1-1.6 187.1 7.4 279 27.1 76.8 16.7 149.9 43.7 219 80.8 42.8 23.8 82 52.7 117.4 86.6-34.9-20.3-71.8-36.4-110.8-48.3-56.6-16.6-114.3-27.1-173.2-31.6-88.7-6-177-2.3-264.8 11.2-1.1-.3-2.2-.6-3.3-.8-16.7-43.8-38.1-85.1-64.1-123.7.5-.4.7-.8.8-1.3z"/><path class="st1" d="M433.1 217.4c60.4-1.9 120.7.5 180.7 7.1 54.1 6 106.3 19.4 156.6 40 35.6 15.3 66.3 37.4 92 66.2 12.1 14.6 21.8 30.7 29.1 48.3 2.1 4.6 3.5 9.3 4.2 14.2-19.3-20.3-41.9-35.7-67.9-46.2-39.4-15.1-80.3-24.5-122.4-28.3-75.7-6.2-151.2-4.5-226.5 5-64.1 7.5-127.4 19.3-189.9 35.4-7.3-41.9-17-83.3-29.1-124.1 8.2-2 16.5-3.6 25-4.6 49.3-6.4 98.7-10.7 148.2-13z"/><path class="st1" d="M633.8 361.5c50.9-1.8 101.4 1.4 151.6 9.6 38.9 6.7 74.7 20.8 107.4 42.5 33 23.4 53.3 54.9 60.8 94.5-31.3-19.2-65.2-31.5-101.6-37.1-61.3-8-122.6-8.3-184.1-.8-125.2 16.4-247.1 46.2-365.6 89.5.9-47.2-1.1-94.4-5.8-141.6 110.6-30.3 223-49.2 337.3-56.6z"/><path class="st1" d="M788.7 509.7c30.6-.8 61.2.4 91.6 3.7 90.7 13.1 117 61.3 78.7 144.5-15.4 30.3-33.7 58.6-55 84.9 6.1-13.2 12.2-26.6 18.3-40 5.4-13.2 9.3-26.8 11.7-40.8 3-21-5.3-35.1-25-42.5-14.5-4.3-29.4-6.2-44.6-5.8-32 .5-63.6 3.9-94.9 10.4-68.1 14.6-135 33.5-200.7 56.6C457.7 719 349 763 242.8 812.9c20.1-39.6 34.9-81.2 44.1-124.9 3.8-20 7.3-39.9 10.4-60 127.9-50.1 259.8-86 395.6-107.9 31.9-4.7 63.8-8.2 95.8-10.4z"/><path class="st2" d="M1018.6 978.6c54.9-4 98 16.3 129.5 60.8 22.3 37.8 25.7 77.2 10 118.3-19.8 42.3-52.7 68.3-98.7 77.9-50.2 7.8-92.8-6.5-127.8-42.9-33.2-40.7-40.4-85.7-21.7-134.9 17-37 44.9-61.5 83.7-73.7 8.3-2.4 16.6-4.2 25-5.5zm5.8 49.2c34.6-2.9 59.2 11.3 73.7 42.5 9.4 25.3 9.4 50.5 0 75.8-14.7 30.9-39.3 44.9-73.7 42.1-26.3-3-44.5-16.8-54.6-41.2-9.9-27.2-9.3-54.1 1.7-80.8 11.1-22 28.7-34.7 52.9-38.4z"/><path d="M337.3 983.6c54.1-.4 95.3 22.1 123.7 67.5 21.9 42.3 21.6 84.5-.8 126.6-30 46.6-72.9 68.4-128.7 65.4-59.1-6.9-98.4-38.4-117.8-94.5-13-57.2 3.6-103.7 49.6-139.5 22.3-15.4 47-23.9 74-25.5zm-4.2 50c46.9-1.6 73.7 20.9 80.4 67.5 3.4 26.2-2.7 49.8-18.3 70.8-20 19.5-43.7 26.3-71.2 20.4-26.2-7.6-42.4-24.6-48.7-51.2-6.5-26.5-3.4-51.7 9.2-75.8 11.4-18 27.6-28.6 48.6-31.7z" style="opacity:.985;fill-rule:evenodd;clip-rule:evenodd;fill:#221f1f;enable-background:new"/><path class="st4" d="M9.2 985.3c46.4.4 92.7 1.3 139.1 2.9 33.5 8.5 52 30 55.4 64.5 1.6 55.2-24.9 86.4-79.5 93.7-17.2.4-34.4.6-51.6.4-.3 27.8-.6 55.5-.8 83.3H11c-.7-81.6-1.3-163.2-1.8-244.8zm63.3 48.3c17.2-.1 34.4 0 51.6.4 15.2 5.2 22.7 15.9 22.5 32.1.1 16.6-7.7 27.6-23.3 32.9-16.9 1.1-33.8 1.5-50.8 1.2v-66.6zM492.2 985.3c45.8-.1 91.6.6 137.4 2.1 33.3 7.8 52.1 28.8 56.2 62.9 4.2 35.2-8.7 61.7-38.7 79.5 26.8 33.3 53.5 66.8 80 100.4-26.9 1-53.9.8-80.8-.4-21.7-29.4-43.3-58.9-65-88.3-8.9-.4-17.8-.6-26.7-.4.2 29.7-.1 59.4-.8 89.1H493c-.6-81.7-.8-163.3-.8-244.9zm62.5 46.6c16.1-.1 32.2 0 48.3.4 12.5 1.6 20.7 8.4 24.6 20.4 4.2 14.8 1.3 28-8.7 39.6-5.2 4.6-11.3 7.1-18.3 7.5-15.3.6-30.5.5-45.8-.4-.1-22.5-.1-45-.1-67.5zM696.3 985.3h214v53.3h-75.8V1231H772v-192.4h-75.8c.1-17.8.1-35.5.1-53.3z"/><path d="M79.1 1280.1c27.9-.9 54.2 5 79.1 17.5.9 1 1.1 2.1.4 3.3-6.3 13.5-13 26.8-20 40-15.6-8.5-32.3-13.7-50-15.8-15.3.3-22.6 8.1-21.7 23.3 1.7 4.5 4.6 8 8.7 10.4 15.3 7.4 30.9 14.4 46.6 20.8 33.3 16 44.3 41.7 32.9 77-8.5 18.7-22.5 31.4-42.1 37.9-18.9 5.9-38 7-57.5 3.3-19.3-2.7-37.6-8.6-55-17.5-.4-.5-.7-1-.8-1.7 5.3-14.4 10.7-28.7 16.2-42.9 20.5 10.3 42.2 16.6 65 19.2 20-.3 27.7-10 23.3-29.1-3-3.8-6.8-6.8-11.2-8.7-15.1-5.3-29.8-11.4-44.1-18.3-9-4.8-17.2-10.8-24.6-17.9-15.2-22.1-16-44.8-2.5-68.3 14.1-19.8 33.1-30.6 57.3-32.5z" style="opacity:.982;fill-rule:evenodd;clip-rule:evenodd;fill:#221f1f;enable-background:new"/><path d="M1030.2 1281c46.6-3.1 83.1 14.4 109.5 52.5 22.9 41.3 21.2 81.6-5 120.8-33.4 39.8-75.4 53.3-126.2 40.4-43-14.6-69-44.1-77.9-88.7-4.3-53.1 17.2-91.6 64.5-115.3 11.5-4.9 23.1-8.1 35.1-9.7zm4.2 41.6c37.8-1.5 60.1 16.2 67 53.3 3.9 23.3-1.1 44.4-15 63.3-16.5 15.9-36.1 21.6-58.7 17.1-22.1-6.3-36.1-20.6-42.1-42.9-5.8-23.5-2.8-45.7 9.2-66.6 9.8-13.8 23-21.8 39.6-24.2z" style="opacity:.983;fill-rule:evenodd;clip-rule:evenodd;fill:#221f1f;enable-background:new"/><path d="M440.6 1281.8c27.1-1.3 53 3.8 77.5 15.4.6 1.5.5 3-.4 4.6-5.9 12.7-12.1 25.2-18.7 37.5-25.3-11.4-51.1-12.9-77.5-4.6-29.1 12.8-42.9 35.2-41.2 67 5.7 27.1 22.3 43.4 49.6 48.7 14.5 2.7 28.9 2.5 43.3-.8.8-24 1.1-48 .8-72h53.3c-.3 32.8-.7 65.5-1.2 98.3-39.6 23.7-81.3 28.5-125.3 14.6-56.3-22-79.5-63-69.5-122.8 9.4-41 34.2-67.5 74.5-79.5 11.4-3.3 23.1-5.3 34.8-6.4z" style="opacity:.984;fill-rule:evenodd;clip-rule:evenodd;fill:#221f1f;enable-background:new"/><path class="st2" d="M543 1281.8c17.8.7 35.5 1 53.3.8-.4 46.7 0 93.3 1.2 139.9 3.3 12.4 10.9 20.9 22.9 25.4 16.1 4.8 31.7 3.4 46.6-4.2 10-7.6 15.2-17.7 15.4-30.4.4-43.6.6-87.2.4-130.8 17.8.2 35.5-.1 53.3-.8.1 46.4 0 92.7-.4 139.1-5.1 36.9-25.5 61-61.2 72-31.4 9.1-61.6 6.3-90.8-8.3-27.4-16.5-41.3-41-41.6-73.3.9-43.1 1.2-86.2.9-129.4zM749.6 1281.8c33.9.6 67.7 1 101.6 1.2 37.2-1.3 60 16.1 68.3 52.1 3.9 23.2-1.5 43.7-16.2 61.6-5.3 4.6-11 8.8-17.1 12.5 23.6 29.2 47 58.6 70 88.3-23.9.7-47.8.4-71.6-.8-18.6-25.5-37.2-51.1-55.8-76.6-8-.8-16.1-1.1-24.2-.8v78.3h-54.1c-.1-72-.4-143.9-.9-215.8zm55.8 41.6c14.2-.1 28.3 0 42.5.4 14.9 3.6 22.4 13.2 22.5 28.7 0 13.3-5.9 22.8-17.5 28.7-8.1 1.5-16.3 2.2-24.6 2.1-7.6-.2-15.3-.5-22.9-.8v-59.1z"/><path d="M179.1 1286.8h138.3v46.6h-83.3v31.6h75.8v45.8h-75.8v35.8H324v46.6H179.1v-206.4z" style="opacity:.978;fill-rule:evenodd;clip-rule:evenodd;fill:#221f1f;enable-background:new"/></svg>